<svg width="339" height="33" viewBox="0 0 339 33" fill="none" xmlns="http://www.w3.org/2000/svg">
<g filter="url(#filter0_di_1_3)">
<path d="M9.23414 15.2L20.0041 19.13V23.39L4.25414 17.33V13.04L20.0041 6.95V11.24L9.23414 15.2ZM32.0388 6.8C34.8188 6.8 36.9988 7.51 38.5788 8.93C40.1788 10.33 40.9788 12.38 40.9788 15.08C40.9788 17.78 40.1788 19.84 38.5788 21.26C36.9988 22.66 34.8188 23.36 32.0388 23.36C29.2588 23.36 27.0788 22.66 25.4988 21.26C23.9188 19.86 23.1288 17.8 23.1288 15.08C23.1288 12.36 23.9188 10.3 25.4988 8.9C27.0788 7.5 29.2588 6.8 32.0388 6.8ZM32.0388 10.85C30.0788 10.85 29.0988 11.98 29.0988 14.24V15.95C29.0988 18.19 30.0788 19.31 32.0388 19.31C34.0188 19.31 35.0088 18.19 35.0088 15.95V14.24C35.0088 11.98 34.0188 10.85 32.0388 10.85ZM49.8586 8.63C50.9986 7.41 52.4786 6.8 54.2986 6.8C56.4386 6.8 58.0886 7.5 59.2486 8.9C60.4086 10.28 60.9886 12.33 60.9886 15.05C60.9886 17.79 60.4086 19.86 59.2486 21.26C58.0886 22.66 56.4386 23.36 54.2986 23.36C52.0986 23.36 50.4186 22.49 49.2586 20.75L48.7486 23H43.8886V1.25H49.8586V8.63ZM52.4386 11.21C51.5586 11.21 50.8986 11.53 50.4586 12.17C50.0186 12.79 49.7986 13.6 49.7986 14.6V15.59C49.7986 16.59 50.0186 17.4 50.4586 18.02C50.8986 18.64 51.5586 18.95 52.4386 18.95C54.1586 18.95 55.0186 17.93 55.0186 15.89V14.3C55.0186 12.24 54.1586 11.21 52.4386 11.21ZM73.4984 6.77C73.9584 6.77 74.3684 6.83 74.7284 6.95C75.0884 7.05 75.2684 7.11 75.2684 7.13V12.14H73.3484C72.1084 12.14 71.2084 12.46 70.6484 13.1C70.1084 13.74 69.8384 14.69 69.8384 15.95V23H63.8684V7.16H68.7584L69.1484 9.56C69.5084 8.64 70.0784 7.95 70.8584 7.49C71.6384 7.01 72.5184 6.77 73.4984 6.77ZM89.6845 23L89.2945 20.6C88.6745 21.46 87.8545 22.14 86.8345 22.64C85.8345 23.12 84.7745 23.36 83.6545 23.36C81.8145 23.36 80.4345 22.85 79.5145 21.83C78.5945 20.81 78.1345 19.34 78.1345 17.42V7.16H84.1045V16.7C84.1045 17.38 84.2745 17.93 84.6145 18.35C84.9745 18.75 85.4745 18.95 86.1145 18.95C86.8545 18.95 87.4545 18.71 87.9145 18.23C88.3745 17.75 88.6045 17.16 88.6045 16.46V7.16H94.5745V23H89.6845ZM109.124 6.8C110.964 6.8 112.344 7.31 113.264 8.33C114.184 9.35 114.644 10.82 114.644 12.74V23H108.674V13.46C108.674 12.78 108.494 12.24 108.134 11.84C107.794 11.42 107.304 11.21 106.664 11.21C105.924 11.21 105.324 11.45 104.864 11.93C104.404 12.41 104.174 13 104.174 13.7V23H98.2043V7.16H103.094L103.484 9.56C104.104 8.72 104.914 8.05 105.914 7.55C106.934 7.05 108.004 6.8 109.124 6.8ZM126.404 6.8C129.184 6.8 131.364 7.51 132.944 8.93C134.544 10.33 135.344 12.38 135.344 15.08C135.344 17.78 134.544 19.84 132.944 21.26C131.364 22.66 129.184 23.36 126.404 23.36C123.624 23.36 121.444 22.66 119.864 21.26C118.284 19.86 117.494 17.8 117.494 15.08C117.494 12.36 118.284 10.3 119.864 8.9C121.444 7.5 123.624 6.8 126.404 6.8ZM126.404 10.85C124.444 10.85 123.464 11.98 123.464 14.24V15.95C123.464 18.19 124.444 19.31 126.404 19.31C128.384 19.31 129.374 18.19 129.374 15.95V14.24C129.374 11.98 128.384 10.85 126.404 10.85ZM156.044 4.19C156.044 5.41 155.734 6.35 155.114 7.01C154.514 7.67 153.604 8.16 152.384 8.48C152.964 8.92 153.414 9.44 153.734 10.04C154.074 10.62 154.244 11.24 154.244 11.9C154.244 13.58 153.604 14.85 152.324 15.71C151.064 16.57 149.484 17 147.584 17H145.304C144.044 17 143.414 17.29 143.414 17.87C143.414 18.15 143.554 18.38 143.834 18.56C144.114 18.72 144.604 18.8 145.304 18.8H150.704C152.464 18.8 153.794 19.26 154.694 20.18C155.594 21.1 156.044 22.33 156.044 23.87C156.044 25.01 155.744 25.99 155.144 26.81C154.544 27.63 153.734 28.25 152.714 28.67C151.694 29.09 150.584 29.3 149.384 29.3H140.564C139.844 29.3 139.174 29.13 138.554 28.79C137.954 28.45 137.474 27.98 137.114 27.38C136.754 26.8 136.574 26.15 136.574 25.43C136.574 24.65 136.814 23.94 137.294 23.3C137.774 22.68 138.374 22.21 139.094 21.89C138.614 21.55 138.234 21.14 137.954 20.66C137.674 20.18 137.534 19.66 137.534 19.1C137.534 18.32 137.824 17.62 138.404 17C138.984 16.36 139.704 15.93 140.564 15.71C139.784 15.21 139.164 14.64 138.704 14C138.244 13.34 138.014 12.65 138.014 11.93C138.014 10.09 138.754 8.78 140.234 8C141.734 7.2 143.714 6.8 146.174 6.8C147.254 6.8 148.124 6.86 148.784 6.98C149.764 6.36 150.394 5.8 150.674 5.3C150.974 4.78 151.124 4.41 151.124 4.19H156.044ZM146.114 9.92C145.454 9.92 144.914 10.09 144.494 10.43C144.074 10.77 143.864 11.26 143.864 11.9C143.864 12.56 144.054 13.06 144.434 13.4C144.834 13.72 145.394 13.88 146.114 13.88C146.834 13.88 147.394 13.72 147.794 13.4C148.214 13.06 148.424 12.56 148.424 11.9C148.424 11.24 148.214 10.75 147.794 10.43C147.394 10.09 146.834 9.92 146.114 9.92ZM143.804 23C143.344 23 142.964 23.12 142.664 23.36C142.384 23.62 142.244 23.98 142.244 24.44C142.244 24.9 142.394 25.27 142.694 25.55C142.994 25.83 143.364 25.97 143.804 25.97H148.484C148.924 25.97 149.294 25.83 149.594 25.55C149.914 25.29 150.074 24.93 150.074 24.47C150.074 24.01 149.924 23.65 149.624 23.39C149.324 23.13 148.944 23 148.484 23H143.804ZM166.424 6.8C169.204 6.8 171.384 7.51 172.964 8.93C174.564 10.33 175.364 12.38 175.364 15.08C175.364 17.78 174.564 19.84 172.964 21.26C171.384 22.66 169.204 23.36 166.424 23.36C163.644 23.36 161.464 22.66 159.884 21.26C158.304 19.86 157.514 17.8 157.514 15.08C157.514 12.36 158.304 10.3 159.884 8.9C161.464 7.5 163.644 6.8 166.424 6.8ZM166.424 10.85C164.464 10.85 163.484 11.98 163.484 14.24V15.95C163.484 18.19 164.464 19.31 166.424 19.31C168.404 19.31 169.394 18.19 169.394 15.95V14.24C169.394 11.98 168.404 10.85 166.424 10.85ZM199.273 6.8C201.073 6.8 202.423 7.32 203.323 8.36C204.223 9.38 204.673 10.84 204.673 12.74V23H198.703V13.46C198.703 12.78 198.533 12.24 198.193 11.84C197.873 11.42 197.413 11.21 196.813 11.21C196.113 11.21 195.543 11.45 195.103 11.93C194.663 12.41 194.443 13 194.443 13.7V23H188.473V13.46C188.473 12.78 188.303 12.24 187.963 11.84C187.643 11.42 187.183 11.21 186.583 11.21C185.883 11.21 185.313 11.45 184.873 11.93C184.433 12.41 184.213 13 184.213 13.7V23H178.243V7.16H183.133L183.523 9.53C184.123 8.69 184.913 8.03 185.893 7.55C186.893 7.05 187.943 6.8 189.043 6.8C191.423 6.8 193.023 7.71 193.843 9.53C194.463 8.69 195.253 8.03 196.213 7.55C197.193 7.05 198.213 6.8 199.273 6.8ZM216.433 6.8C219.333 6.8 221.543 7.48 223.063 8.84C224.603 10.2 225.373 12.28 225.373 15.08V16.1H213.493C213.493 17.24 213.743 18.1 214.243 18.68C214.763 19.26 215.573 19.55 216.673 19.55C217.673 19.55 218.403 19.34 218.863 18.92C219.343 18.5 219.583 17.94 219.583 17.24H225.373C225.373 19.16 224.643 20.66 223.183 21.74C221.723 22.82 219.593 23.36 216.793 23.36C213.853 23.36 211.573 22.68 209.953 21.32C208.333 19.94 207.523 17.86 207.523 15.08C207.523 12.36 208.313 10.3 209.893 8.9C211.473 7.5 213.653 6.8 216.433 6.8ZM216.673 10.61C214.793 10.61 213.743 11.5 213.523 13.28H219.343C219.343 12.46 219.103 11.81 218.623 11.33C218.163 10.85 217.513 10.61 216.673 10.61ZM235.783 6.8C237.903 6.8 239.693 7.22 241.153 8.06C242.633 8.88 243.373 10.16 243.373 11.9H237.823C237.823 11.32 237.563 10.91 237.043 10.67C236.683 10.47 236.233 10.37 235.693 10.37C234.253 10.37 233.533 10.71 233.533 11.39C233.533 11.77 233.783 12.04 234.283 12.2C234.783 12.36 235.603 12.53 236.743 12.71C238.143 12.91 239.313 13.15 240.253 13.43C241.193 13.69 242.013 14.17 242.713 14.87C243.413 15.55 243.763 16.51 243.763 17.75C243.763 19.77 243.003 21.21 241.483 22.07C239.983 22.93 238.013 23.36 235.573 23.36C234.173 23.36 232.853 23.17 231.613 22.79C230.373 22.39 229.363 21.78 228.583 20.96C227.803 20.14 227.413 19.1 227.413 17.84H232.963V17.96C232.983 18.64 233.263 19.12 233.803 19.4C234.363 19.66 234.953 19.79 235.573 19.79C237.233 19.79 238.063 19.4 238.063 18.62C238.063 18.22 237.803 17.93 237.283 17.75C236.763 17.57 235.913 17.38 234.733 17.18C233.313 16.94 232.143 16.68 231.223 16.4C230.323 16.12 229.533 15.65 228.853 14.99C228.173 14.31 227.833 13.37 227.833 12.17C227.833 10.23 228.563 8.85 230.023 8.03C231.503 7.21 233.423 6.8 235.783 6.8ZM256.223 6.77C256.683 6.77 257.093 6.83 257.453 6.95C257.813 7.05 257.993 7.11 257.993 7.13V12.14H256.073C254.833 12.14 253.933 12.46 253.373 13.1C252.833 13.74 252.563 14.69 252.563 15.95V23H246.593V7.16H251.483L251.873 9.56C252.233 8.64 252.803 7.95 253.583 7.49C254.363 7.01 255.243 6.77 256.223 6.77ZM268.582 6.8C271.482 6.8 273.692 7.48 275.212 8.84C276.752 10.2 277.522 12.28 277.522 15.08V16.1H265.642C265.642 17.24 265.892 18.1 266.392 18.68C266.912 19.26 267.722 19.55 268.822 19.55C269.822 19.55 270.552 19.34 271.012 18.92C271.492 18.5 271.732 17.94 271.732 17.24H277.522C277.522 19.16 276.792 20.66 275.332 21.74C273.872 22.82 271.742 23.36 268.942 23.36C266.002 23.36 263.722 22.68 262.102 21.32C260.482 19.94 259.672 17.86 259.672 15.08C259.672 12.36 260.462 10.3 262.042 8.9C263.622 7.5 265.802 6.8 268.582 6.8ZM268.822 10.61C266.942 10.61 265.892 11.5 265.672 13.28H271.492C271.492 12.46 271.252 11.81 270.772 11.33C270.312 10.85 269.662 10.61 268.822 10.61ZM288.232 6.8C290.652 6.8 292.622 7.21 294.142 8.03C295.662 8.83 296.422 10.14 296.422 11.96V18.14C296.422 18.48 296.502 18.76 296.662 18.98C296.822 19.2 297.062 19.31 297.382 19.31H298.462V22.76C298.402 22.8 298.242 22.87 297.982 22.97C297.742 23.05 297.392 23.13 296.932 23.21C296.472 23.31 295.942 23.36 295.342 23.36C294.182 23.36 293.222 23.19 292.462 22.85C291.722 22.49 291.212 22 290.932 21.38C290.172 21.98 289.322 22.46 288.382 22.82C287.442 23.18 286.342 23.36 285.082 23.36C281.362 23.36 279.502 21.88 279.502 18.92C279.502 17.38 279.912 16.21 280.732 15.41C281.572 14.59 282.772 14.03 284.332 13.73C285.892 13.43 287.932 13.28 290.452 13.28V12.5C290.452 11.88 290.232 11.41 289.792 11.09C289.372 10.77 288.822 10.61 288.142 10.61C287.522 10.61 286.982 10.72 286.522 10.94C286.082 11.16 285.862 11.51 285.862 11.99V12.11H279.982C279.962 12.01 279.952 11.87 279.952 11.69C279.952 10.19 280.662 9 282.082 8.12C283.522 7.24 285.572 6.8 288.232 6.8ZM290.452 16.1C288.752 16.1 287.492 16.29 286.672 16.67C285.872 17.03 285.472 17.52 285.472 18.14C285.472 19.14 286.152 19.64 287.512 19.64C288.292 19.64 288.972 19.43 289.552 19.01C290.152 18.59 290.452 18.07 290.452 17.45V16.1ZM300.621 23V1.25H306.591V23H300.621ZM308.542 24.44L313.342 0.919998H316.972L312.202 24.44H308.542ZM334.741 17.33L318.991 23.39V19.13L329.761 15.2L318.991 11.24V6.95L334.741 13.04V17.33Z" fill="white"/>
</g>
<defs>
<filter id="filter0_di_1_3" x="0.254135" y="0.919998" width="338.487" height="36.38" filterUnits="userSpaceOnUse" color-interpolation-filters="sRGB">
<feFlood flood-opacity="0" result="BackgroundImageFix"/>
<feColorMatrix in="SourceAlpha" type="matrix" values="0 0 0 0 0 0 0 0 0 0 0 0 0 0 0 0 0 0 127 0" result="hardAlpha"/>
<feOffset dy="4"/>
<feGaussianBlur stdDeviation="2"/>
<feComposite in2="hardAlpha" operator="out"/>
<feColorMatrix type="matrix" values="0 0 0 0 0 0 0 0 0 0 0 0 0 0 0 0 0 0 0.25 0"/>
<feBlend mode="normal" in2="BackgroundImageFix" result="effect1_dropShadow_1_3"/>
<feBlend mode="normal" in="SourceGraphic" in2="effect1_dropShadow_1_3" result="shape"/>
<feColorMatrix in="SourceAlpha" type="matrix" values="0 0 0 0 0 0 0 0 0 0 0 0 0 0 0 0 0 0 127 0" result="hardAlpha"/>
<feOffset dy="4"/>
<feGaussianBlur stdDeviation="2"/>
<feComposite in2="hardAlpha" operator="arithmetic" k2="-1" k3="1"/>
<feColorMatrix type="matrix" values="0 0 0 0 0 0 0 0 0 0 0 0 0 0 0 0 0 0 0.25 0"/>
<feBlend mode="normal" in2="shape" result="effect2_innerShadow_1_3"/>
</filter>
</defs>
</svg>
